<svg width="186" height="93" viewBox="0 0 186 93" fill="none" xmlns="http://www.w3.org/2000/svg">
<path d="M28.6908 91.4234L0.703445 57.9234C-0.928421 55.9701 0.460464 53 3.00572 53H182.153C184.403 53 185.852 55.3849 184.816 57.3819L167.43 90.8819C166.914 91.8761 165.887 92.5 164.767 92.5H30.9931C30.104 92.5 29.2608 92.1057 28.6908 91.4234Z" fill="white"/>
<path d="M81.0413 47H12.6391C10.6245 47 9.18253 45.0538 9.7691 43.1265L14.943 26.1265C15.3275 24.8633 16.4926 24 17.813 24H75.8674C77.1878 24 78.353 24.8633 78.7374 26.1265L83.9113 43.1265C84.4979 45.0538 83.0559 47 81.0413 47Z" fill="white"/>
<path d="M61.0902 15.5V3C61.0902 1.34315 59.7471 0 58.0902 0H36.0902C34.4333 0 33.0902 1.34315 33.0902 3V15.5C33.0902 17.1569 34.4333 18.5 36.0902 18.5H58.0902C59.7471 18.5 61.0902 17.1569 61.0902 15.5Z" fill="white"/>
</svg>
